<mxfile host="app.diagrams.net" modified="2023-11-26T02:41:12.711Z" agent="Mozilla/5.0 (X11; Linux x86_64) AppleWebKit/537.36 (KHTML, like Gecko) Chrome/118.0.0.0 Safari/537.36" etag="uoxWhy6Sgu9K8F-fLk5J" version="22.1.4" type="github">
  <diagram name="第 1 页" id="5fGWWKJ4rIMBZ-qDA2rJ">
    <mxGraphModel dx="2273" dy="2454" grid="1" gridSize="10" guides="1" tooltips="1" connect="1" arrows="1" fold="1" page="1" pageScale="1" pageWidth="827" pageHeight="1169" math="0" shadow="0">
      <root>
        <mxCell id="0" />
        <mxCell id="1" parent="0" />
        <mxCell id="uf4mvmNSqiAmKSMoRBAt-13" value="nbhv b" style="swimlane;startSize=20;horizontal=1;containerType=tree;" parent="1" vertex="1">
          <mxGeometry x="40" y="-420" width="1580" height="2420" as="geometry" />
        </mxCell>
        <mxCell id="uf4mvmNSqiAmKSMoRBAt-36" style="edgeStyle=entityRelationEdgeStyle;rounded=0;orthogonalLoop=1;jettySize=auto;html=1;startArrow=none;endArrow=none;segment=10;curved=1;sourcePerimeterSpacing=0;targetPerimeterSpacing=0;exitX=1;exitY=0.5;exitDx=0;exitDy=0;entryX=0;entryY=0.5;entryDx=0;entryDy=0;" parent="uf4mvmNSqiAmKSMoRBAt-13" source="uf4mvmNSqiAmKSMoRBAt-127" target="uf4mvmNSqiAmKSMoRBAt-34" edge="1">
          <mxGeometry relative="1" as="geometry" />
        </mxCell>
        <mxCell id="uf4mvmNSqiAmKSMoRBAt-18" value="jiaozifs" style="ellipse;whiteSpace=wrap;html=1;align=center;treeFolding=1;treeMoving=1;newEdgeStyle={&quot;edgeStyle&quot;:&quot;entityRelationEdgeStyle&quot;,&quot;startArrow&quot;:&quot;none&quot;,&quot;endArrow&quot;:&quot;none&quot;,&quot;segment&quot;:10,&quot;curved&quot;:1,&quot;sourcePerimeterSpacing&quot;:0,&quot;targetPerimeterSpacing&quot;:0};" parent="uf4mvmNSqiAmKSMoRBAt-13" vertex="1">
          <mxGeometry x="140" y="875" width="100" height="40" as="geometry" />
        </mxCell>
        <mxCell id="uf4mvmNSqiAmKSMoRBAt-27" value="credentials" style="whiteSpace=wrap;html=1;rounded=1;arcSize=50;align=center;verticalAlign=middle;strokeWidth=1;autosize=1;spacing=4;treeFolding=1;treeMoving=1;newEdgeStyle={&quot;edgeStyle&quot;:&quot;entityRelationEdgeStyle&quot;,&quot;startArrow&quot;:&quot;none&quot;,&quot;endArrow&quot;:&quot;none&quot;,&quot;segment&quot;:10,&quot;curved&quot;:1,&quot;sourcePerimeterSpacing&quot;:0,&quot;targetPerimeterSpacing&quot;:0};" parent="uf4mvmNSqiAmKSMoRBAt-13" vertex="1">
          <mxGeometry x="380" y="318" width="100" height="30" as="geometry" />
        </mxCell>
        <mxCell id="uf4mvmNSqiAmKSMoRBAt-28" value="" style="edgeStyle=entityRelationEdgeStyle;startArrow=none;endArrow=none;segment=10;curved=1;sourcePerimeterSpacing=0;targetPerimeterSpacing=0;rounded=0;" parent="uf4mvmNSqiAmKSMoRBAt-13" source="uf4mvmNSqiAmKSMoRBAt-18" target="uf4mvmNSqiAmKSMoRBAt-27" edge="1">
          <mxGeometry relative="1" as="geometry">
            <mxPoint x="386" y="530" as="sourcePoint" />
          </mxGeometry>
        </mxCell>
        <mxCell id="uf4mvmNSqiAmKSMoRBAt-86" style="edgeStyle=entityRelationEdgeStyle;rounded=0;orthogonalLoop=1;jettySize=auto;html=1;startArrow=none;endArrow=none;segment=10;curved=1;sourcePerimeterSpacing=0;targetPerimeterSpacing=0;exitX=1;exitY=0.5;exitDx=0;exitDy=0;entryX=0;entryY=1;entryDx=0;entryDy=0;" parent="uf4mvmNSqiAmKSMoRBAt-13" target="uf4mvmNSqiAmKSMoRBAt-85" edge="1">
          <mxGeometry relative="1" as="geometry">
            <mxPoint x="865.9999999999998" y="1375" as="sourcePoint" />
          </mxGeometry>
        </mxCell>
        <mxCell id="uf4mvmNSqiAmKSMoRBAt-32" value="storages" style="whiteSpace=wrap;html=1;rounded=1;arcSize=50;align=center;verticalAlign=middle;strokeWidth=1;autosize=1;spacing=4;treeFolding=1;treeMoving=1;newEdgeStyle={&quot;edgeStyle&quot;:&quot;entityRelationEdgeStyle&quot;,&quot;startArrow&quot;:&quot;none&quot;,&quot;endArrow&quot;:&quot;none&quot;,&quot;segment&quot;:10,&quot;curved&quot;:1,&quot;sourcePerimeterSpacing&quot;:0,&quot;targetPerimeterSpacing&quot;:0};" parent="uf4mvmNSqiAmKSMoRBAt-13" vertex="1">
          <mxGeometry x="775" y="1360" width="90" height="30" as="geometry" />
        </mxCell>
        <mxCell id="uf4mvmNSqiAmKSMoRBAt-33" value="" style="edgeStyle=entityRelationEdgeStyle;startArrow=none;endArrow=none;segment=10;curved=1;sourcePerimeterSpacing=0;targetPerimeterSpacing=0;rounded=0;exitX=1;exitY=0.5;exitDx=0;exitDy=0;" parent="uf4mvmNSqiAmKSMoRBAt-13" source="uf4mvmNSqiAmKSMoRBAt-127" target="uf4mvmNSqiAmKSMoRBAt-32" edge="1">
          <mxGeometry relative="1" as="geometry">
            <mxPoint x="330" y="770" as="sourcePoint" />
          </mxGeometry>
        </mxCell>
        <mxCell id="uf4mvmNSqiAmKSMoRBAt-34" value="git style versions" style="whiteSpace=wrap;html=1;rounded=1;arcSize=50;align=center;verticalAlign=middle;strokeWidth=1;autosize=1;spacing=4;treeFolding=1;treeMoving=1;newEdgeStyle={&quot;edgeStyle&quot;:&quot;entityRelationEdgeStyle&quot;,&quot;startArrow&quot;:&quot;none&quot;,&quot;endArrow&quot;:&quot;none&quot;,&quot;segment&quot;:10,&quot;curved&quot;:1,&quot;sourcePerimeterSpacing&quot;:0,&quot;targetPerimeterSpacing&quot;:0};" parent="uf4mvmNSqiAmKSMoRBAt-13" vertex="1">
          <mxGeometry x="770" y="735" width="130" height="30" as="geometry" />
        </mxCell>
        <mxCell id="uf4mvmNSqiAmKSMoRBAt-41" value="automation" style="whiteSpace=wrap;html=1;rounded=1;arcSize=50;align=center;verticalAlign=middle;strokeWidth=1;autosize=1;spacing=4;treeFolding=1;treeMoving=1;newEdgeStyle={&quot;edgeStyle&quot;:&quot;entityRelationEdgeStyle&quot;,&quot;startArrow&quot;:&quot;none&quot;,&quot;endArrow&quot;:&quot;none&quot;,&quot;segment&quot;:10,&quot;curved&quot;:1,&quot;sourcePerimeterSpacing&quot;:0,&quot;targetPerimeterSpacing&quot;:0};" parent="uf4mvmNSqiAmKSMoRBAt-13" vertex="1">
          <mxGeometry x="775" y="1710" width="100" height="30" as="geometry" />
        </mxCell>
        <mxCell id="uf4mvmNSqiAmKSMoRBAt-42" value="" style="edgeStyle=entityRelationEdgeStyle;startArrow=none;endArrow=none;segment=10;curved=1;sourcePerimeterSpacing=0;targetPerimeterSpacing=0;rounded=0;exitX=1;exitY=0.5;exitDx=0;exitDy=0;" parent="uf4mvmNSqiAmKSMoRBAt-13" source="uf4mvmNSqiAmKSMoRBAt-127" target="uf4mvmNSqiAmKSMoRBAt-41" edge="1">
          <mxGeometry relative="1" as="geometry">
            <mxPoint x="326" y="875" as="sourcePoint" />
            <Array as="points">
              <mxPoint x="490" y="830" />
            </Array>
          </mxGeometry>
        </mxCell>
        <mxCell id="uf4mvmNSqiAmKSMoRBAt-46" value="ak/sk&amp;nbsp;credential" style="whiteSpace=wrap;html=1;shape=partialRectangle;top=0;left=0;bottom=1;right=0;points=[[0,1],[1,1]];fillColor=none;align=center;verticalAlign=bottom;routingCenterY=0.5;snapToPoint=1;recursiveResize=0;autosize=1;treeFolding=1;treeMoving=1;newEdgeStyle={&quot;edgeStyle&quot;:&quot;entityRelationEdgeStyle&quot;,&quot;startArrow&quot;:&quot;none&quot;,&quot;endArrow&quot;:&quot;none&quot;,&quot;segment&quot;:10,&quot;curved&quot;:1,&quot;sourcePerimeterSpacing&quot;:0,&quot;targetPerimeterSpacing&quot;:0};" parent="uf4mvmNSqiAmKSMoRBAt-13" vertex="1">
          <mxGeometry x="520" y="340" width="120" height="30" as="geometry" />
        </mxCell>
        <mxCell id="uf4mvmNSqiAmKSMoRBAt-47" value="" style="edgeStyle=entityRelationEdgeStyle;startArrow=none;endArrow=none;segment=10;curved=1;sourcePerimeterSpacing=0;targetPerimeterSpacing=0;rounded=0;exitX=1;exitY=0.5;exitDx=0;exitDy=0;" parent="uf4mvmNSqiAmKSMoRBAt-13" source="uf4mvmNSqiAmKSMoRBAt-27" target="uf4mvmNSqiAmKSMoRBAt-46" edge="1">
          <mxGeometry relative="1" as="geometry">
            <mxPoint x="465" y="313" as="sourcePoint" />
          </mxGeometry>
        </mxCell>
        <mxCell id="uf4mvmNSqiAmKSMoRBAt-48" value="3rd credential" style="whiteSpace=wrap;html=1;shape=partialRectangle;top=0;left=0;bottom=1;right=0;points=[[0,1],[1,1]];fillColor=none;align=center;verticalAlign=bottom;routingCenterY=0.5;snapToPoint=1;recursiveResize=0;autosize=1;treeFolding=1;treeMoving=1;newEdgeStyle={&quot;edgeStyle&quot;:&quot;entityRelationEdgeStyle&quot;,&quot;startArrow&quot;:&quot;none&quot;,&quot;endArrow&quot;:&quot;none&quot;,&quot;segment&quot;:10,&quot;curved&quot;:1,&quot;sourcePerimeterSpacing&quot;:0,&quot;targetPerimeterSpacing&quot;:0};" parent="uf4mvmNSqiAmKSMoRBAt-13" vertex="1">
          <mxGeometry x="525" y="400" width="110" height="30" as="geometry" />
        </mxCell>
        <mxCell id="uf4mvmNSqiAmKSMoRBAt-49" value="" style="edgeStyle=entityRelationEdgeStyle;startArrow=none;endArrow=none;segment=10;curved=1;sourcePerimeterSpacing=0;targetPerimeterSpacing=0;rounded=0;exitX=1;exitY=0.5;exitDx=0;exitDy=0;" parent="uf4mvmNSqiAmKSMoRBAt-13" source="uf4mvmNSqiAmKSMoRBAt-27" target="uf4mvmNSqiAmKSMoRBAt-48" edge="1">
          <mxGeometry relative="1" as="geometry">
            <mxPoint x="490" y="380" as="sourcePoint" />
          </mxGeometry>
        </mxCell>
        <mxCell id="uf4mvmNSqiAmKSMoRBAt-50" value="&lt;font color=&quot;#ff0000&quot;&gt;mem storage for test&lt;/font&gt;" style="whiteSpace=wrap;html=1;shape=partialRectangle;top=0;left=0;bottom=1;right=0;points=[[0,1],[1,1]];fillColor=none;align=center;verticalAlign=bottom;routingCenterY=0.5;snapToPoint=1;recursiveResize=0;autosize=1;treeFolding=1;treeMoving=1;newEdgeStyle={&quot;edgeStyle&quot;:&quot;entityRelationEdgeStyle&quot;,&quot;startArrow&quot;:&quot;none&quot;,&quot;endArrow&quot;:&quot;none&quot;,&quot;segment&quot;:10,&quot;curved&quot;:1,&quot;sourcePerimeterSpacing&quot;:0,&quot;targetPerimeterSpacing&quot;:0};" parent="uf4mvmNSqiAmKSMoRBAt-13" vertex="1">
          <mxGeometry x="900.5" y="1270" width="150" height="30" as="geometry" />
        </mxCell>
        <mxCell id="uf4mvmNSqiAmKSMoRBAt-51" value="" style="edgeStyle=entityRelationEdgeStyle;startArrow=none;endArrow=none;segment=10;curved=1;sourcePerimeterSpacing=0;targetPerimeterSpacing=0;rounded=0;exitX=1;exitY=0.5;exitDx=0;exitDy=0;" parent="uf4mvmNSqiAmKSMoRBAt-13" target="uf4mvmNSqiAmKSMoRBAt-50" edge="1">
          <mxGeometry relative="1" as="geometry">
            <mxPoint x="865.9999999999998" y="1375" as="sourcePoint" />
          </mxGeometry>
        </mxCell>
        <mxCell id="uf4mvmNSqiAmKSMoRBAt-53" value="&lt;font color=&quot;#ff0000&quot;&gt;local fs storage&lt;/font&gt;" style="whiteSpace=wrap;html=1;shape=partialRectangle;top=0;left=0;bottom=1;right=0;points=[[0,1],[1,1]];fillColor=none;align=center;verticalAlign=bottom;routingCenterY=0.5;snapToPoint=1;recursiveResize=0;autosize=1;treeFolding=1;treeMoving=1;newEdgeStyle={&quot;edgeStyle&quot;:&quot;entityRelationEdgeStyle&quot;,&quot;startArrow&quot;:&quot;none&quot;,&quot;endArrow&quot;:&quot;none&quot;,&quot;segment&quot;:10,&quot;curved&quot;:1,&quot;sourcePerimeterSpacing&quot;:0,&quot;targetPerimeterSpacing&quot;:0};" parent="uf4mvmNSqiAmKSMoRBAt-13" vertex="1">
          <mxGeometry x="905.5" y="1380" width="120" height="30" as="geometry" />
        </mxCell>
        <mxCell id="uf4mvmNSqiAmKSMoRBAt-54" value="" style="edgeStyle=entityRelationEdgeStyle;startArrow=none;endArrow=none;segment=10;curved=1;sourcePerimeterSpacing=0;targetPerimeterSpacing=0;rounded=0;exitX=1;exitY=0.5;exitDx=0;exitDy=0;" parent="uf4mvmNSqiAmKSMoRBAt-13" target="uf4mvmNSqiAmKSMoRBAt-53" edge="1">
          <mxGeometry relative="1" as="geometry">
            <mxPoint x="865.9999999999998" y="1375" as="sourcePoint" />
          </mxGeometry>
        </mxCell>
        <mxCell id="uf4mvmNSqiAmKSMoRBAt-57" value="&lt;font color=&quot;#ff0000&quot;&gt;aliyun&lt;/font&gt;" style="whiteSpace=wrap;html=1;shape=partialRectangle;top=0;left=0;bottom=1;right=0;points=[[0,1],[1,1]];fillColor=none;align=center;verticalAlign=bottom;routingCenterY=0.5;snapToPoint=1;recursiveResize=0;autosize=1;treeFolding=1;treeMoving=1;newEdgeStyle={&quot;edgeStyle&quot;:&quot;entityRelationEdgeStyle&quot;,&quot;startArrow&quot;:&quot;none&quot;,&quot;endArrow&quot;:&quot;none&quot;,&quot;segment&quot;:10,&quot;curved&quot;:1,&quot;sourcePerimeterSpacing&quot;:0,&quot;targetPerimeterSpacing&quot;:0};" parent="uf4mvmNSqiAmKSMoRBAt-13" vertex="1">
          <mxGeometry x="1083.5" y="1380" width="70" height="30" as="geometry" />
        </mxCell>
        <mxCell id="uf4mvmNSqiAmKSMoRBAt-58" value="" style="edgeStyle=entityRelationEdgeStyle;startArrow=none;endArrow=none;segment=10;curved=1;sourcePerimeterSpacing=0;targetPerimeterSpacing=0;rounded=0;exitX=1;exitY=0.5;exitDx=0;exitDy=0;" parent="uf4mvmNSqiAmKSMoRBAt-13" source="uf4mvmNSqiAmKSMoRBAt-59" target="uf4mvmNSqiAmKSMoRBAt-57" edge="1">
          <mxGeometry relative="1" as="geometry">
            <mxPoint x="1038.5" y="1430" as="sourcePoint" />
          </mxGeometry>
        </mxCell>
        <mxCell id="uf4mvmNSqiAmKSMoRBAt-62" style="edgeStyle=entityRelationEdgeStyle;rounded=0;orthogonalLoop=1;jettySize=auto;html=1;startArrow=none;endArrow=none;segment=10;curved=1;sourcePerimeterSpacing=0;targetPerimeterSpacing=0;exitX=1;exitY=0.5;exitDx=0;exitDy=0;entryX=0;entryY=1;entryDx=0;entryDy=0;" parent="uf4mvmNSqiAmKSMoRBAt-13" source="uf4mvmNSqiAmKSMoRBAt-59" target="uf4mvmNSqiAmKSMoRBAt-61" edge="1">
          <mxGeometry relative="1" as="geometry" />
        </mxCell>
        <mxCell id="uf4mvmNSqiAmKSMoRBAt-59" value="object storage" style="whiteSpace=wrap;html=1;rounded=1;arcSize=50;align=center;verticalAlign=middle;strokeWidth=1;autosize=1;spacing=4;treeFolding=1;treeMoving=1;newEdgeStyle={&quot;edgeStyle&quot;:&quot;entityRelationEdgeStyle&quot;,&quot;startArrow&quot;:&quot;none&quot;,&quot;endArrow&quot;:&quot;none&quot;,&quot;segment&quot;:10,&quot;curved&quot;:1,&quot;sourcePerimeterSpacing&quot;:0,&quot;targetPerimeterSpacing&quot;:0};" parent="uf4mvmNSqiAmKSMoRBAt-13" vertex="1">
          <mxGeometry x="898.5" y="1430" width="120" height="30" as="geometry" />
        </mxCell>
        <mxCell id="uf4mvmNSqiAmKSMoRBAt-60" value="" style="edgeStyle=entityRelationEdgeStyle;startArrow=none;endArrow=none;segment=10;curved=1;sourcePerimeterSpacing=0;targetPerimeterSpacing=0;rounded=0;" parent="uf4mvmNSqiAmKSMoRBAt-13" target="uf4mvmNSqiAmKSMoRBAt-59" edge="1">
          <mxGeometry relative="1" as="geometry">
            <mxPoint x="865.9999999999998" y="1375" as="sourcePoint" />
          </mxGeometry>
        </mxCell>
        <mxCell id="uf4mvmNSqiAmKSMoRBAt-61" value="&lt;font color=&quot;#ff0000&quot;&gt;s3&lt;/font&gt;" style="whiteSpace=wrap;html=1;shape=partialRectangle;top=0;left=0;bottom=1;right=0;points=[[0,1],[1,1]];fillColor=none;align=center;verticalAlign=bottom;routingCenterY=0.5;snapToPoint=1;recursiveResize=0;autosize=1;treeFolding=1;treeMoving=1;newEdgeStyle={&quot;edgeStyle&quot;:&quot;entityRelationEdgeStyle&quot;,&quot;startArrow&quot;:&quot;none&quot;,&quot;endArrow&quot;:&quot;none&quot;,&quot;segment&quot;:10,&quot;curved&quot;:1,&quot;sourcePerimeterSpacing&quot;:0,&quot;targetPerimeterSpacing&quot;:0};" parent="uf4mvmNSqiAmKSMoRBAt-13" vertex="1">
          <mxGeometry x="1093.5" y="1410" width="50" height="30" as="geometry" />
        </mxCell>
        <mxCell id="uf4mvmNSqiAmKSMoRBAt-63" value="azure" style="whiteSpace=wrap;html=1;shape=partialRectangle;top=0;left=0;bottom=1;right=0;points=[[0,1],[1,1]];fillColor=none;align=center;verticalAlign=bottom;routingCenterY=0.5;snapToPoint=1;recursiveResize=0;autosize=1;treeFolding=1;treeMoving=1;newEdgeStyle={&quot;edgeStyle&quot;:&quot;entityRelationEdgeStyle&quot;,&quot;startArrow&quot;:&quot;none&quot;,&quot;endArrow&quot;:&quot;none&quot;,&quot;segment&quot;:10,&quot;curved&quot;:1,&quot;sourcePerimeterSpacing&quot;:0,&quot;targetPerimeterSpacing&quot;:0};" parent="uf4mvmNSqiAmKSMoRBAt-13" vertex="1">
          <mxGeometry x="1083.5" y="1450" width="70" height="30" as="geometry" />
        </mxCell>
        <mxCell id="uf4mvmNSqiAmKSMoRBAt-64" style="edgeStyle=entityRelationEdgeStyle;rounded=0;orthogonalLoop=1;jettySize=auto;html=1;startArrow=none;endArrow=none;segment=10;curved=1;sourcePerimeterSpacing=0;targetPerimeterSpacing=0;exitX=1;exitY=0.5;exitDx=0;exitDy=0;entryX=0;entryY=1;entryDx=0;entryDy=0;" parent="uf4mvmNSqiAmKSMoRBAt-13" source="uf4mvmNSqiAmKSMoRBAt-59" target="uf4mvmNSqiAmKSMoRBAt-63" edge="1">
          <mxGeometry relative="1" as="geometry">
            <Array as="points">
              <mxPoint x="1088.5" y="1480" />
            </Array>
          </mxGeometry>
        </mxCell>
        <mxCell id="uf4mvmNSqiAmKSMoRBAt-65" value="script engine" style="whiteSpace=wrap;html=1;shape=partialRectangle;top=0;left=0;bottom=1;right=0;points=[[0,1],[1,1]];fillColor=none;align=center;verticalAlign=bottom;routingCenterY=0.5;snapToPoint=1;recursiveResize=0;autosize=1;treeFolding=1;treeMoving=1;newEdgeStyle={&quot;edgeStyle&quot;:&quot;entityRelationEdgeStyle&quot;,&quot;startArrow&quot;:&quot;none&quot;,&quot;endArrow&quot;:&quot;none&quot;,&quot;segment&quot;:10,&quot;curved&quot;:1,&quot;sourcePerimeterSpacing&quot;:0,&quot;targetPerimeterSpacing&quot;:0};" parent="uf4mvmNSqiAmKSMoRBAt-13" vertex="1">
          <mxGeometry x="1105" y="1580" width="110" height="30" as="geometry" />
        </mxCell>
        <mxCell id="uf4mvmNSqiAmKSMoRBAt-67" value="engine api" style="whiteSpace=wrap;html=1;shape=partialRectangle;top=0;left=0;bottom=1;right=0;points=[[0,1],[1,1]];fillColor=none;align=center;verticalAlign=bottom;routingCenterY=0.5;snapToPoint=1;recursiveResize=0;autosize=1;treeFolding=1;treeMoving=1;newEdgeStyle={&quot;edgeStyle&quot;:&quot;entityRelationEdgeStyle&quot;,&quot;startArrow&quot;:&quot;none&quot;,&quot;endArrow&quot;:&quot;none&quot;,&quot;segment&quot;:10,&quot;curved&quot;:1,&quot;sourcePerimeterSpacing&quot;:0,&quot;targetPerimeterSpacing&quot;:0};" parent="uf4mvmNSqiAmKSMoRBAt-13" vertex="1">
          <mxGeometry x="945" y="1700" width="100" height="30" as="geometry" />
        </mxCell>
        <mxCell id="uf4mvmNSqiAmKSMoRBAt-68" value="" style="edgeStyle=entityRelationEdgeStyle;startArrow=none;endArrow=none;segment=10;curved=1;sourcePerimeterSpacing=0;targetPerimeterSpacing=0;rounded=0;exitX=1;exitY=0.5;exitDx=0;exitDy=0;entryX=0.052;entryY=1.01;entryDx=0;entryDy=0;entryPerimeter=0;" parent="uf4mvmNSqiAmKSMoRBAt-13" source="uf4mvmNSqiAmKSMoRBAt-41" target="uf4mvmNSqiAmKSMoRBAt-67" edge="1">
          <mxGeometry relative="1" as="geometry">
            <mxPoint x="885" y="1671" as="sourcePoint" />
            <mxPoint x="932" y="1671.2857142857142" as="targetPoint" />
          </mxGeometry>
        </mxCell>
        <mxCell id="uf4mvmNSqiAmKSMoRBAt-71" value="hook" style="whiteSpace=wrap;html=1;rounded=1;arcSize=50;align=center;verticalAlign=middle;strokeWidth=1;autosize=1;spacing=4;treeFolding=1;treeMoving=1;newEdgeStyle={&quot;edgeStyle&quot;:&quot;entityRelationEdgeStyle&quot;,&quot;startArrow&quot;:&quot;none&quot;,&quot;endArrow&quot;:&quot;none&quot;,&quot;segment&quot;:10,&quot;curved&quot;:1,&quot;sourcePerimeterSpacing&quot;:0,&quot;targetPerimeterSpacing&quot;:0};" parent="uf4mvmNSqiAmKSMoRBAt-13" vertex="1">
          <mxGeometry x="937" y="1800" width="70" height="30" as="geometry" />
        </mxCell>
        <mxCell id="uf4mvmNSqiAmKSMoRBAt-72" value="" style="edgeStyle=entityRelationEdgeStyle;startArrow=none;endArrow=none;segment=10;curved=1;sourcePerimeterSpacing=0;targetPerimeterSpacing=0;rounded=0;exitX=1;exitY=0.5;exitDx=0;exitDy=0;" parent="uf4mvmNSqiAmKSMoRBAt-13" source="uf4mvmNSqiAmKSMoRBAt-41" target="uf4mvmNSqiAmKSMoRBAt-71" edge="1">
          <mxGeometry relative="1" as="geometry">
            <mxPoint x="885" y="1671" as="sourcePoint" />
          </mxGeometry>
        </mxCell>
        <mxCell id="uf4mvmNSqiAmKSMoRBAt-74" value="commits" style="whiteSpace=wrap;html=1;shape=partialRectangle;top=0;left=0;bottom=1;right=0;points=[[0,1],[1,1]];fillColor=none;align=center;verticalAlign=bottom;routingCenterY=0.5;snapToPoint=1;recursiveResize=0;autosize=1;treeFolding=1;treeMoving=1;newEdgeStyle={&quot;edgeStyle&quot;:&quot;entityRelationEdgeStyle&quot;,&quot;startArrow&quot;:&quot;none&quot;,&quot;endArrow&quot;:&quot;none&quot;,&quot;segment&quot;:10,&quot;curved&quot;:1,&quot;sourcePerimeterSpacing&quot;:0,&quot;targetPerimeterSpacing&quot;:0};" parent="uf4mvmNSqiAmKSMoRBAt-13" vertex="1">
          <mxGeometry x="1100" y="1750" width="90" height="30" as="geometry" />
        </mxCell>
        <mxCell id="uf4mvmNSqiAmKSMoRBAt-75" value="" style="edgeStyle=entityRelationEdgeStyle;startArrow=none;endArrow=none;segment=10;curved=1;sourcePerimeterSpacing=0;targetPerimeterSpacing=0;rounded=0;exitX=1;exitY=0.5;exitDx=0;exitDy=0;" parent="uf4mvmNSqiAmKSMoRBAt-13" source="uf4mvmNSqiAmKSMoRBAt-71" target="uf4mvmNSqiAmKSMoRBAt-74" edge="1">
          <mxGeometry relative="1" as="geometry">
            <mxPoint x="1060" y="1830" as="sourcePoint" />
          </mxGeometry>
        </mxCell>
        <mxCell id="uf4mvmNSqiAmKSMoRBAt-78" value="PR" style="whiteSpace=wrap;html=1;shape=partialRectangle;top=0;left=0;bottom=1;right=0;points=[[0,1],[1,1]];fillColor=none;align=center;verticalAlign=bottom;routingCenterY=0.5;snapToPoint=1;recursiveResize=0;autosize=1;treeFolding=1;treeMoving=1;newEdgeStyle={&quot;edgeStyle&quot;:&quot;entityRelationEdgeStyle&quot;,&quot;startArrow&quot;:&quot;none&quot;,&quot;endArrow&quot;:&quot;none&quot;,&quot;segment&quot;:10,&quot;curved&quot;:1,&quot;sourcePerimeterSpacing&quot;:0,&quot;targetPerimeterSpacing&quot;:0};" parent="uf4mvmNSqiAmKSMoRBAt-13" vertex="1">
          <mxGeometry x="1098" y="1820" width="60" height="30" as="geometry" />
        </mxCell>
        <mxCell id="uf4mvmNSqiAmKSMoRBAt-79" value="" style="edgeStyle=entityRelationEdgeStyle;startArrow=none;endArrow=none;segment=10;curved=1;sourcePerimeterSpacing=0;targetPerimeterSpacing=0;rounded=0;" parent="uf4mvmNSqiAmKSMoRBAt-13" source="uf4mvmNSqiAmKSMoRBAt-71" target="uf4mvmNSqiAmKSMoRBAt-78" edge="1">
          <mxGeometry relative="1" as="geometry">
            <mxPoint x="1057" y="1880" as="sourcePoint" />
          </mxGeometry>
        </mxCell>
        <mxCell id="uf4mvmNSqiAmKSMoRBAt-80" value="git action style pipline&amp;nbsp;" style="whiteSpace=wrap;html=1;shape=partialRectangle;top=0;left=0;bottom=1;right=0;points=[[0,1],[1,1]];fillColor=none;align=center;verticalAlign=bottom;routingCenterY=0.5;snapToPoint=1;recursiveResize=0;autosize=1;treeFolding=1;treeMoving=1;newEdgeStyle={&quot;edgeStyle&quot;:&quot;entityRelationEdgeStyle&quot;,&quot;startArrow&quot;:&quot;none&quot;,&quot;endArrow&quot;:&quot;none&quot;,&quot;segment&quot;:10,&quot;curved&quot;:1,&quot;sourcePerimeterSpacing&quot;:0,&quot;targetPerimeterSpacing&quot;:0};" parent="uf4mvmNSqiAmKSMoRBAt-13" vertex="1">
          <mxGeometry x="1105" y="1634.5" width="160" height="30" as="geometry" />
        </mxCell>
        <mxCell id="uf4mvmNSqiAmKSMoRBAt-82" value="chart graphic" style="whiteSpace=wrap;html=1;shape=partialRectangle;top=0;left=0;bottom=1;right=0;points=[[0,1],[1,1]];fillColor=none;align=center;verticalAlign=bottom;routingCenterY=0.5;snapToPoint=1;recursiveResize=0;autosize=1;treeFolding=1;treeMoving=1;newEdgeStyle={&quot;edgeStyle&quot;:&quot;entityRelationEdgeStyle&quot;,&quot;startArrow&quot;:&quot;none&quot;,&quot;endArrow&quot;:&quot;none&quot;,&quot;segment&quot;:10,&quot;curved&quot;:1,&quot;sourcePerimeterSpacing&quot;:0,&quot;targetPerimeterSpacing&quot;:0};" parent="uf4mvmNSqiAmKSMoRBAt-13" vertex="1">
          <mxGeometry x="1120" y="1680" width="110" height="30" as="geometry" />
        </mxCell>
        <mxCell id="uf4mvmNSqiAmKSMoRBAt-85" value="&lt;font color=&quot;#ff0000&quot;&gt;ipfs storage&lt;/font&gt;" style="whiteSpace=wrap;html=1;shape=partialRectangle;top=0;left=0;bottom=1;right=0;points=[[0,1],[1,1]];fillColor=none;align=center;verticalAlign=bottom;routingCenterY=0.5;snapToPoint=1;recursiveResize=0;autosize=1;treeFolding=1;treeMoving=1;newEdgeStyle={&quot;edgeStyle&quot;:&quot;entityRelationEdgeStyle&quot;,&quot;startArrow&quot;:&quot;none&quot;,&quot;endArrow&quot;:&quot;none&quot;,&quot;segment&quot;:10,&quot;curved&quot;:1,&quot;sourcePerimeterSpacing&quot;:0,&quot;targetPerimeterSpacing&quot;:0};" parent="uf4mvmNSqiAmKSMoRBAt-13" vertex="1">
          <mxGeometry x="908.5" y="1320" width="100" height="30" as="geometry" />
        </mxCell>
        <mxCell id="uf4mvmNSqiAmKSMoRBAt-87" value="excutor" style="whiteSpace=wrap;html=1;rounded=1;arcSize=50;align=center;verticalAlign=middle;strokeWidth=1;autosize=1;spacing=4;treeFolding=1;treeMoving=1;newEdgeStyle={&quot;edgeStyle&quot;:&quot;entityRelationEdgeStyle&quot;,&quot;startArrow&quot;:&quot;none&quot;,&quot;endArrow&quot;:&quot;none&quot;,&quot;segment&quot;:10,&quot;curved&quot;:1,&quot;sourcePerimeterSpacing&quot;:0,&quot;targetPerimeterSpacing&quot;:0};" parent="uf4mvmNSqiAmKSMoRBAt-13" vertex="1">
          <mxGeometry x="952" y="1640" width="80" height="30" as="geometry" />
        </mxCell>
        <mxCell id="uf4mvmNSqiAmKSMoRBAt-88" value="" style="edgeStyle=entityRelationEdgeStyle;startArrow=none;endArrow=none;segment=10;curved=1;sourcePerimeterSpacing=0;targetPerimeterSpacing=0;rounded=0;exitX=1;exitY=0.5;exitDx=0;exitDy=0;" parent="uf4mvmNSqiAmKSMoRBAt-13" source="uf4mvmNSqiAmKSMoRBAt-41" target="uf4mvmNSqiAmKSMoRBAt-87" edge="1">
          <mxGeometry relative="1" as="geometry">
            <mxPoint x="875" y="1720" as="sourcePoint" />
          </mxGeometry>
        </mxCell>
        <mxCell id="uf4mvmNSqiAmKSMoRBAt-66" value="" style="edgeStyle=entityRelationEdgeStyle;startArrow=none;endArrow=none;segment=10;curved=1;sourcePerimeterSpacing=0;targetPerimeterSpacing=0;rounded=0;exitX=1;exitY=0.5;exitDx=0;exitDy=0;" parent="uf4mvmNSqiAmKSMoRBAt-13" source="uf4mvmNSqiAmKSMoRBAt-87" target="uf4mvmNSqiAmKSMoRBAt-65" edge="1">
          <mxGeometry relative="1" as="geometry">
            <mxPoint x="907" y="1640" as="sourcePoint" />
          </mxGeometry>
        </mxCell>
        <mxCell id="uf4mvmNSqiAmKSMoRBAt-81" value="" style="edgeStyle=entityRelationEdgeStyle;startArrow=none;endArrow=none;segment=10;curved=1;sourcePerimeterSpacing=0;targetPerimeterSpacing=0;rounded=0;exitX=1;exitY=0.5;exitDx=0;exitDy=0;" parent="uf4mvmNSqiAmKSMoRBAt-13" source="uf4mvmNSqiAmKSMoRBAt-87" target="uf4mvmNSqiAmKSMoRBAt-80" edge="1">
          <mxGeometry relative="1" as="geometry">
            <mxPoint x="885" y="1720" as="sourcePoint" />
          </mxGeometry>
        </mxCell>
        <mxCell id="uf4mvmNSqiAmKSMoRBAt-84" style="edgeStyle=entityRelationEdgeStyle;rounded=0;orthogonalLoop=1;jettySize=auto;html=1;startArrow=none;endArrow=none;segment=10;curved=1;sourcePerimeterSpacing=0;targetPerimeterSpacing=0;exitX=1;exitY=0.5;exitDx=0;exitDy=0;entryX=0;entryY=1;entryDx=0;entryDy=0;" parent="uf4mvmNSqiAmKSMoRBAt-13" source="uf4mvmNSqiAmKSMoRBAt-87" target="uf4mvmNSqiAmKSMoRBAt-82" edge="1">
          <mxGeometry relative="1" as="geometry" />
        </mxCell>
        <mxCell id="uf4mvmNSqiAmKSMoRBAt-102" value="&lt;font color=&quot;#ff0505&quot;&gt;ref&lt;/font&gt;" style="whiteSpace=wrap;html=1;rounded=1;arcSize=50;align=center;verticalAlign=middle;strokeWidth=1;autosize=1;spacing=4;treeFolding=1;treeMoving=1;newEdgeStyle={&quot;edgeStyle&quot;:&quot;entityRelationEdgeStyle&quot;,&quot;startArrow&quot;:&quot;none&quot;,&quot;endArrow&quot;:&quot;none&quot;,&quot;segment&quot;:10,&quot;curved&quot;:1,&quot;sourcePerimeterSpacing&quot;:0,&quot;targetPerimeterSpacing&quot;:0};" parent="uf4mvmNSqiAmKSMoRBAt-13" vertex="1">
          <mxGeometry x="970" y="805" width="60" height="30" as="geometry" />
        </mxCell>
        <mxCell id="uf4mvmNSqiAmKSMoRBAt-103" value="" style="edgeStyle=entityRelationEdgeStyle;startArrow=none;endArrow=none;segment=10;curved=1;sourcePerimeterSpacing=0;targetPerimeterSpacing=0;rounded=0;exitX=1;exitY=0.5;exitDx=0;exitDy=0;" parent="uf4mvmNSqiAmKSMoRBAt-13" source="uf4mvmNSqiAmKSMoRBAt-34" target="uf4mvmNSqiAmKSMoRBAt-102" edge="1">
          <mxGeometry relative="1" as="geometry">
            <mxPoint x="624" y="785" as="sourcePoint" />
          </mxGeometry>
        </mxCell>
        <mxCell id="uf4mvmNSqiAmKSMoRBAt-134" style="edgeStyle=entityRelationEdgeStyle;rounded=0;orthogonalLoop=1;jettySize=auto;html=1;startArrow=none;endArrow=none;segment=10;curved=1;sourcePerimeterSpacing=0;targetPerimeterSpacing=0;exitX=1;exitY=0.5;exitDx=0;exitDy=0;entryX=0;entryY=1;entryDx=0;entryDy=0;" parent="uf4mvmNSqiAmKSMoRBAt-13" source="uf4mvmNSqiAmKSMoRBAt-106" target="uf4mvmNSqiAmKSMoRBAt-133" edge="1">
          <mxGeometry relative="1" as="geometry" />
        </mxCell>
        <mxCell id="uf4mvmNSqiAmKSMoRBAt-106" value="settings" style="whiteSpace=wrap;html=1;rounded=1;arcSize=50;align=center;verticalAlign=middle;strokeWidth=1;autosize=1;spacing=4;treeFolding=1;treeMoving=1;newEdgeStyle={&quot;edgeStyle&quot;:&quot;entityRelationEdgeStyle&quot;,&quot;startArrow&quot;:&quot;none&quot;,&quot;endArrow&quot;:&quot;none&quot;,&quot;segment&quot;:10,&quot;curved&quot;:1,&quot;sourcePerimeterSpacing&quot;:0,&quot;targetPerimeterSpacing&quot;:0};" parent="uf4mvmNSqiAmKSMoRBAt-13" vertex="1">
          <mxGeometry x="798.5" y="2000" width="90" height="30" as="geometry" />
        </mxCell>
        <mxCell id="uf4mvmNSqiAmKSMoRBAt-107" value="" style="edgeStyle=entityRelationEdgeStyle;startArrow=none;endArrow=none;segment=10;curved=1;sourcePerimeterSpacing=0;targetPerimeterSpacing=0;rounded=0;exitX=1;exitY=0.5;exitDx=0;exitDy=0;" parent="uf4mvmNSqiAmKSMoRBAt-13" source="uf4mvmNSqiAmKSMoRBAt-127" target="uf4mvmNSqiAmKSMoRBAt-106" edge="1">
          <mxGeometry relative="1" as="geometry">
            <mxPoint x="614" y="665" as="sourcePoint" />
          </mxGeometry>
        </mxCell>
        <mxCell id="uf4mvmNSqiAmKSMoRBAt-108" value="tag" style="whiteSpace=wrap;html=1;rounded=1;arcSize=50;align=center;verticalAlign=middle;strokeWidth=1;autosize=1;spacing=4;treeFolding=1;treeMoving=1;newEdgeStyle={&quot;edgeStyle&quot;:&quot;entityRelationEdgeStyle&quot;,&quot;startArrow&quot;:&quot;none&quot;,&quot;endArrow&quot;:&quot;none&quot;,&quot;segment&quot;:10,&quot;curved&quot;:1,&quot;sourcePerimeterSpacing&quot;:0,&quot;targetPerimeterSpacing&quot;:0};" parent="uf4mvmNSqiAmKSMoRBAt-13" vertex="1">
          <mxGeometry x="1094" y="960" width="60" height="30" as="geometry" />
        </mxCell>
        <mxCell id="uf4mvmNSqiAmKSMoRBAt-109" value="" style="edgeStyle=entityRelationEdgeStyle;startArrow=none;endArrow=none;segment=10;curved=1;sourcePerimeterSpacing=0;targetPerimeterSpacing=0;rounded=0;exitX=1;exitY=0.5;exitDx=0;exitDy=0;" parent="uf4mvmNSqiAmKSMoRBAt-13" source="uf4mvmNSqiAmKSMoRBAt-102" target="uf4mvmNSqiAmKSMoRBAt-108" edge="1">
          <mxGeometry relative="1" as="geometry">
            <mxPoint x="1038" y="940" as="sourcePoint" />
          </mxGeometry>
        </mxCell>
        <mxCell id="uf4mvmNSqiAmKSMoRBAt-122" style="edgeStyle=entityRelationEdgeStyle;rounded=0;orthogonalLoop=1;jettySize=auto;html=1;startArrow=none;endArrow=none;segment=10;curved=1;sourcePerimeterSpacing=0;targetPerimeterSpacing=0;exitX=1;exitY=0.5;exitDx=0;exitDy=0;entryX=0;entryY=1;entryDx=0;entryDy=0;" parent="uf4mvmNSqiAmKSMoRBAt-13" source="uf4mvmNSqiAmKSMoRBAt-110" target="uf4mvmNSqiAmKSMoRBAt-120" edge="1">
          <mxGeometry relative="1" as="geometry" />
        </mxCell>
        <mxCell id="uf4mvmNSqiAmKSMoRBAt-124" style="edgeStyle=entityRelationEdgeStyle;rounded=0;orthogonalLoop=1;jettySize=auto;html=1;startArrow=none;endArrow=none;segment=10;curved=1;sourcePerimeterSpacing=0;targetPerimeterSpacing=0;exitX=1;exitY=0.5;exitDx=0;exitDy=0;entryX=0;entryY=1;entryDx=0;entryDy=0;" parent="uf4mvmNSqiAmKSMoRBAt-13" source="uf4mvmNSqiAmKSMoRBAt-110" target="uf4mvmNSqiAmKSMoRBAt-123" edge="1">
          <mxGeometry relative="1" as="geometry" />
        </mxCell>
        <mxCell id="uf4mvmNSqiAmKSMoRBAt-126" style="edgeStyle=entityRelationEdgeStyle;rounded=0;orthogonalLoop=1;jettySize=auto;html=1;startArrow=none;endArrow=none;segment=10;curved=1;sourcePerimeterSpacing=0;targetPerimeterSpacing=0;exitX=1;exitY=0.5;exitDx=0;exitDy=0;" parent="uf4mvmNSqiAmKSMoRBAt-13" source="uf4mvmNSqiAmKSMoRBAt-110" target="uf4mvmNSqiAmKSMoRBAt-125" edge="1">
          <mxGeometry relative="1" as="geometry" />
        </mxCell>
        <mxCell id="uf4mvmNSqiAmKSMoRBAt-110" value="branch" style="whiteSpace=wrap;html=1;rounded=1;arcSize=50;align=center;verticalAlign=middle;strokeWidth=1;autosize=1;spacing=4;treeFolding=1;treeMoving=1;newEdgeStyle={&quot;edgeStyle&quot;:&quot;entityRelationEdgeStyle&quot;,&quot;startArrow&quot;:&quot;none&quot;,&quot;endArrow&quot;:&quot;none&quot;,&quot;segment&quot;:10,&quot;curved&quot;:1,&quot;sourcePerimeterSpacing&quot;:0,&quot;targetPerimeterSpacing&quot;:0};" parent="uf4mvmNSqiAmKSMoRBAt-13" vertex="1">
          <mxGeometry x="1084" y="805.11" width="80" height="30" as="geometry" />
        </mxCell>
        <mxCell id="uf4mvmNSqiAmKSMoRBAt-111" value="" style="edgeStyle=entityRelationEdgeStyle;startArrow=none;endArrow=none;segment=10;curved=1;sourcePerimeterSpacing=0;targetPerimeterSpacing=0;rounded=0;exitX=1;exitY=0.5;exitDx=0;exitDy=0;" parent="uf4mvmNSqiAmKSMoRBAt-13" target="uf4mvmNSqiAmKSMoRBAt-110" edge="1" source="uf4mvmNSqiAmKSMoRBAt-102">
          <mxGeometry relative="1" as="geometry">
            <mxPoint x="1034" y="820" as="sourcePoint" />
          </mxGeometry>
        </mxCell>
        <mxCell id="uf4mvmNSqiAmKSMoRBAt-112" value="create" style="whiteSpace=wrap;html=1;shape=partialRectangle;top=0;left=0;bottom=1;right=0;points=[[0,1],[1,1]];fillColor=none;align=center;verticalAlign=bottom;routingCenterY=0.5;snapToPoint=1;recursiveResize=0;autosize=1;treeFolding=1;treeMoving=1;newEdgeStyle={&quot;edgeStyle&quot;:&quot;entityRelationEdgeStyle&quot;,&quot;startArrow&quot;:&quot;none&quot;,&quot;endArrow&quot;:&quot;none&quot;,&quot;segment&quot;:10,&quot;curved&quot;:1,&quot;sourcePerimeterSpacing&quot;:0,&quot;targetPerimeterSpacing&quot;:0};" parent="uf4mvmNSqiAmKSMoRBAt-13" vertex="1">
          <mxGeometry x="1194" y="920" width="70" height="30" as="geometry" />
        </mxCell>
        <mxCell id="uf4mvmNSqiAmKSMoRBAt-113" value="" style="edgeStyle=entityRelationEdgeStyle;startArrow=none;endArrow=none;segment=10;curved=1;sourcePerimeterSpacing=0;targetPerimeterSpacing=0;rounded=0;exitX=1;exitY=0.5;exitDx=0;exitDy=0;" parent="uf4mvmNSqiAmKSMoRBAt-13" source="uf4mvmNSqiAmKSMoRBAt-108" target="uf4mvmNSqiAmKSMoRBAt-112" edge="1">
          <mxGeometry relative="1" as="geometry">
            <mxPoint x="1160" y="950" as="sourcePoint" />
          </mxGeometry>
        </mxCell>
        <mxCell id="uf4mvmNSqiAmKSMoRBAt-114" value="rename" style="whiteSpace=wrap;html=1;shape=partialRectangle;top=0;left=0;bottom=1;right=0;points=[[0,1],[1,1]];fillColor=none;align=center;verticalAlign=bottom;routingCenterY=0.5;snapToPoint=1;recursiveResize=0;autosize=1;treeFolding=1;treeMoving=1;newEdgeStyle={&quot;edgeStyle&quot;:&quot;entityRelationEdgeStyle&quot;,&quot;startArrow&quot;:&quot;none&quot;,&quot;endArrow&quot;:&quot;none&quot;,&quot;segment&quot;:10,&quot;curved&quot;:1,&quot;sourcePerimeterSpacing&quot;:0,&quot;targetPerimeterSpacing&quot;:0};" parent="uf4mvmNSqiAmKSMoRBAt-13" vertex="1">
          <mxGeometry x="1199" y="980" width="80" height="30" as="geometry" />
        </mxCell>
        <mxCell id="uf4mvmNSqiAmKSMoRBAt-115" value="" style="edgeStyle=entityRelationEdgeStyle;startArrow=none;endArrow=none;segment=10;curved=1;sourcePerimeterSpacing=0;targetPerimeterSpacing=0;rounded=0;" parent="uf4mvmNSqiAmKSMoRBAt-13" source="uf4mvmNSqiAmKSMoRBAt-108" target="uf4mvmNSqiAmKSMoRBAt-114" edge="1">
          <mxGeometry relative="1" as="geometry">
            <mxPoint x="1170" y="1010" as="sourcePoint" />
          </mxGeometry>
        </mxCell>
        <mxCell id="uf4mvmNSqiAmKSMoRBAt-116" value="crud" style="whiteSpace=wrap;html=1;shape=partialRectangle;top=0;left=0;bottom=1;right=0;points=[[0,1],[1,1]];fillColor=none;align=center;verticalAlign=bottom;routingCenterY=0.5;snapToPoint=1;recursiveResize=0;autosize=1;treeFolding=1;treeMoving=1;newEdgeStyle={&quot;edgeStyle&quot;:&quot;entityRelationEdgeStyle&quot;,&quot;startArrow&quot;:&quot;none&quot;,&quot;endArrow&quot;:&quot;none&quot;,&quot;segment&quot;:10,&quot;curved&quot;:1,&quot;sourcePerimeterSpacing&quot;:0,&quot;targetPerimeterSpacing&quot;:0};" parent="uf4mvmNSqiAmKSMoRBAt-13" vertex="1">
          <mxGeometry x="1210" y="750" width="60" height="30" as="geometry" />
        </mxCell>
        <mxCell id="uf4mvmNSqiAmKSMoRBAt-117" value="" style="edgeStyle=entityRelationEdgeStyle;startArrow=none;endArrow=none;segment=10;curved=1;sourcePerimeterSpacing=0;targetPerimeterSpacing=0;rounded=0;exitX=1;exitY=0.5;exitDx=0;exitDy=0;entryX=0;entryY=1;entryDx=0;entryDy=0;" parent="uf4mvmNSqiAmKSMoRBAt-13" source="uf4mvmNSqiAmKSMoRBAt-110" target="uf4mvmNSqiAmKSMoRBAt-116" edge="1">
          <mxGeometry relative="1" as="geometry">
            <mxPoint x="1164" y="800.11" as="sourcePoint" />
            <mxPoint x="1209.2068965517242" y="780.0020689655172" as="targetPoint" />
          </mxGeometry>
        </mxCell>
        <mxCell id="uf4mvmNSqiAmKSMoRBAt-120" value="compare" style="whiteSpace=wrap;html=1;shape=partialRectangle;top=0;left=0;bottom=1;right=0;points=[[0,1],[1,1]];fillColor=none;align=center;verticalAlign=bottom;routingCenterY=0.5;snapToPoint=1;recursiveResize=0;autosize=1;treeFolding=1;treeMoving=1;newEdgeStyle={&quot;edgeStyle&quot;:&quot;entityRelationEdgeStyle&quot;,&quot;startArrow&quot;:&quot;none&quot;,&quot;endArrow&quot;:&quot;none&quot;,&quot;segment&quot;:10,&quot;curved&quot;:1,&quot;sourcePerimeterSpacing&quot;:0,&quot;targetPerimeterSpacing&quot;:0};" parent="uf4mvmNSqiAmKSMoRBAt-13" vertex="1">
          <mxGeometry x="1195" y="814.97" width="90" height="30" as="geometry" />
        </mxCell>
        <mxCell id="uf4mvmNSqiAmKSMoRBAt-123" value="merge" style="whiteSpace=wrap;html=1;shape=partialRectangle;top=0;left=0;bottom=1;right=0;points=[[0,1],[1,1]];fillColor=none;align=center;verticalAlign=bottom;routingCenterY=0.5;snapToPoint=1;recursiveResize=0;autosize=1;treeFolding=1;treeMoving=1;newEdgeStyle={&quot;edgeStyle&quot;:&quot;entityRelationEdgeStyle&quot;,&quot;startArrow&quot;:&quot;none&quot;,&quot;endArrow&quot;:&quot;none&quot;,&quot;segment&quot;:10,&quot;curved&quot;:1,&quot;sourcePerimeterSpacing&quot;:0,&quot;targetPerimeterSpacing&quot;:0};" parent="uf4mvmNSqiAmKSMoRBAt-13" vertex="1">
          <mxGeometry x="1210" y="870" width="70" height="30" as="geometry" />
        </mxCell>
        <mxCell id="uf4mvmNSqiAmKSMoRBAt-125" value="edit" style="whiteSpace=wrap;html=1;shape=partialRectangle;top=0;left=0;bottom=1;right=0;points=[[0,1],[1,1]];fillColor=none;align=center;verticalAlign=bottom;routingCenterY=0.5;snapToPoint=1;recursiveResize=0;autosize=1;treeFolding=1;treeMoving=1;newEdgeStyle={&quot;edgeStyle&quot;:&quot;entityRelationEdgeStyle&quot;,&quot;startArrow&quot;:&quot;none&quot;,&quot;endArrow&quot;:&quot;none&quot;,&quot;segment&quot;:10,&quot;curved&quot;:1,&quot;sourcePerimeterSpacing&quot;:0,&quot;targetPerimeterSpacing&quot;:0};" parent="uf4mvmNSqiAmKSMoRBAt-13" vertex="1">
          <mxGeometry x="1209" y="844.97" width="60" height="30" as="geometry" />
        </mxCell>
        <mxCell id="uf4mvmNSqiAmKSMoRBAt-127" value="repository" style="whiteSpace=wrap;html=1;rounded=1;arcSize=50;align=center;verticalAlign=middle;strokeWidth=1;autosize=1;spacing=4;treeFolding=1;treeMoving=1;newEdgeStyle={&quot;edgeStyle&quot;:&quot;entityRelationEdgeStyle&quot;,&quot;startArrow&quot;:&quot;none&quot;,&quot;endArrow&quot;:&quot;none&quot;,&quot;segment&quot;:10,&quot;curved&quot;:1,&quot;sourcePerimeterSpacing&quot;:0,&quot;targetPerimeterSpacing&quot;:0};" parent="uf4mvmNSqiAmKSMoRBAt-13" vertex="1">
          <mxGeometry x="390" y="1440" width="100" height="30" as="geometry" />
        </mxCell>
        <mxCell id="uf4mvmNSqiAmKSMoRBAt-128" value="" style="edgeStyle=entityRelationEdgeStyle;startArrow=none;endArrow=none;segment=10;curved=1;sourcePerimeterSpacing=0;targetPerimeterSpacing=0;rounded=0;exitX=1;exitY=0.5;exitDx=0;exitDy=0;" parent="uf4mvmNSqiAmKSMoRBAt-13" source="uf4mvmNSqiAmKSMoRBAt-18" target="uf4mvmNSqiAmKSMoRBAt-127" edge="1">
          <mxGeometry relative="1" as="geometry">
            <mxPoint x="300" y="737.11" as="sourcePoint" />
          </mxGeometry>
        </mxCell>
        <mxCell id="uf4mvmNSqiAmKSMoRBAt-129" value="rename" style="whiteSpace=wrap;html=1;shape=partialRectangle;top=0;left=0;bottom=1;right=0;points=[[0,1],[1,1]];fillColor=none;align=center;verticalAlign=bottom;routingCenterY=0.5;snapToPoint=1;recursiveResize=0;autosize=1;treeFolding=1;treeMoving=1;newEdgeStyle={&quot;edgeStyle&quot;:&quot;entityRelationEdgeStyle&quot;,&quot;startArrow&quot;:&quot;none&quot;,&quot;endArrow&quot;:&quot;none&quot;,&quot;segment&quot;:10,&quot;curved&quot;:1,&quot;sourcePerimeterSpacing&quot;:0,&quot;targetPerimeterSpacing&quot;:0};" parent="uf4mvmNSqiAmKSMoRBAt-13" vertex="1">
          <mxGeometry x="940" y="1930" width="80" height="30" as="geometry" />
        </mxCell>
        <mxCell id="uf4mvmNSqiAmKSMoRBAt-130" value="" style="edgeStyle=entityRelationEdgeStyle;startArrow=none;endArrow=none;segment=10;curved=1;sourcePerimeterSpacing=0;targetPerimeterSpacing=0;rounded=0;exitX=1;exitY=0.5;exitDx=0;exitDy=0;" parent="uf4mvmNSqiAmKSMoRBAt-13" source="uf4mvmNSqiAmKSMoRBAt-106" target="uf4mvmNSqiAmKSMoRBAt-129" edge="1">
          <mxGeometry relative="1" as="geometry">
            <mxPoint x="938.5" y="1970" as="sourcePoint" />
          </mxGeometry>
        </mxCell>
        <mxCell id="uf4mvmNSqiAmKSMoRBAt-131" value="protect branch" style="whiteSpace=wrap;html=1;shape=partialRectangle;top=0;left=0;bottom=1;right=0;points=[[0,1],[1,1]];fillColor=none;align=center;verticalAlign=bottom;routingCenterY=0.5;snapToPoint=1;recursiveResize=0;autosize=1;treeFolding=1;treeMoving=1;newEdgeStyle={&quot;edgeStyle&quot;:&quot;entityRelationEdgeStyle&quot;,&quot;startArrow&quot;:&quot;none&quot;,&quot;endArrow&quot;:&quot;none&quot;,&quot;segment&quot;:10,&quot;curved&quot;:1,&quot;sourcePerimeterSpacing&quot;:0,&quot;targetPerimeterSpacing&quot;:0};" parent="uf4mvmNSqiAmKSMoRBAt-13" vertex="1">
          <mxGeometry x="927" y="2050" width="120" height="30" as="geometry" />
        </mxCell>
        <mxCell id="uf4mvmNSqiAmKSMoRBAt-132" style="edgeStyle=entityRelationEdgeStyle;rounded=0;orthogonalLoop=1;jettySize=auto;html=1;startArrow=none;endArrow=none;segment=10;curved=1;sourcePerimeterSpacing=0;targetPerimeterSpacing=0;exitX=1;exitY=0.5;exitDx=0;exitDy=0;entryX=0;entryY=1;entryDx=0;entryDy=0;" parent="uf4mvmNSqiAmKSMoRBAt-13" source="uf4mvmNSqiAmKSMoRBAt-106" target="uf4mvmNSqiAmKSMoRBAt-131" edge="1">
          <mxGeometry relative="1" as="geometry">
            <Array as="points">
              <mxPoint x="926.5" y="2090" />
            </Array>
          </mxGeometry>
        </mxCell>
        <mxCell id="uf4mvmNSqiAmKSMoRBAt-133" value="default branch" style="whiteSpace=wrap;html=1;shape=partialRectangle;top=0;left=0;bottom=1;right=0;points=[[0,1],[1,1]];fillColor=none;align=center;verticalAlign=bottom;routingCenterY=0.5;snapToPoint=1;recursiveResize=0;autosize=1;treeFolding=1;treeMoving=1;newEdgeStyle={&quot;edgeStyle&quot;:&quot;entityRelationEdgeStyle&quot;,&quot;startArrow&quot;:&quot;none&quot;,&quot;endArrow&quot;:&quot;none&quot;,&quot;segment&quot;:10,&quot;curved&quot;:1,&quot;sourcePerimeterSpacing&quot;:0,&quot;targetPerimeterSpacing&quot;:0};" parent="uf4mvmNSqiAmKSMoRBAt-13" vertex="1">
          <mxGeometry x="917" y="1990" width="120" height="30" as="geometry" />
        </mxCell>
        <mxCell id="yM6-UxT9ezw3NtagHcxI-1" value="gc" style="whiteSpace=wrap;html=1;shape=partialRectangle;top=0;left=0;bottom=1;right=0;points=[[0,1],[1,1]];fillColor=none;align=center;verticalAlign=bottom;routingCenterY=0.5;snapToPoint=1;recursiveResize=0;autosize=1;treeFolding=1;treeMoving=1;newEdgeStyle={&quot;edgeStyle&quot;:&quot;entityRelationEdgeStyle&quot;,&quot;startArrow&quot;:&quot;none&quot;,&quot;endArrow&quot;:&quot;none&quot;,&quot;segment&quot;:10,&quot;curved&quot;:1,&quot;sourcePerimeterSpacing&quot;:0,&quot;targetPerimeterSpacing&quot;:0};" parent="uf4mvmNSqiAmKSMoRBAt-13" vertex="1">
          <mxGeometry x="972" y="1150" width="50" height="30" as="geometry" />
        </mxCell>
        <mxCell id="yM6-UxT9ezw3NtagHcxI-2" value="" style="edgeStyle=entityRelationEdgeStyle;startArrow=none;endArrow=none;segment=10;curved=1;sourcePerimeterSpacing=0;targetPerimeterSpacing=0;rounded=0;exitX=1;exitY=0.5;exitDx=0;exitDy=0;" parent="uf4mvmNSqiAmKSMoRBAt-13" source="uf4mvmNSqiAmKSMoRBAt-34" target="yM6-UxT9ezw3NtagHcxI-1" edge="1">
          <mxGeometry relative="1" as="geometry">
            <mxPoint x="934" y="1000" as="sourcePoint" />
          </mxGeometry>
        </mxCell>
        <mxCell id="yM6-UxT9ezw3NtagHcxI-3" value="user/password" style="whiteSpace=wrap;html=1;rounded=1;arcSize=50;align=center;verticalAlign=middle;strokeWidth=1;autosize=1;spacing=4;treeFolding=1;treeMoving=1;newEdgeStyle={&quot;edgeStyle&quot;:&quot;entityRelationEdgeStyle&quot;,&quot;startArrow&quot;:&quot;none&quot;,&quot;endArrow&quot;:&quot;none&quot;,&quot;segment&quot;:10,&quot;curved&quot;:1,&quot;sourcePerimeterSpacing&quot;:0,&quot;targetPerimeterSpacing&quot;:0};" parent="uf4mvmNSqiAmKSMoRBAt-13" vertex="1">
          <mxGeometry x="510" y="248" width="120" height="30" as="geometry" />
        </mxCell>
        <mxCell id="yM6-UxT9ezw3NtagHcxI-4" value="" style="edgeStyle=entityRelationEdgeStyle;startArrow=none;endArrow=none;segment=10;curved=1;sourcePerimeterSpacing=0;targetPerimeterSpacing=0;rounded=0;exitX=1;exitY=0.5;exitDx=0;exitDy=0;" parent="uf4mvmNSqiAmKSMoRBAt-13" source="uf4mvmNSqiAmKSMoRBAt-27" target="yM6-UxT9ezw3NtagHcxI-3" edge="1">
          <mxGeometry relative="1" as="geometry">
            <mxPoint x="490" y="290" as="sourcePoint" />
          </mxGeometry>
        </mxCell>
        <mxCell id="yM6-UxT9ezw3NtagHcxI-5" value="&lt;font color=&quot;#ff0d0d&quot;&gt;register&lt;/font&gt;" style="whiteSpace=wrap;html=1;shape=partialRectangle;top=0;left=0;bottom=1;right=0;points=[[0,1],[1,1]];fillColor=none;align=center;verticalAlign=bottom;routingCenterY=0.5;snapToPoint=1;recursiveResize=0;autosize=1;treeFolding=1;treeMoving=1;newEdgeStyle={&quot;edgeStyle&quot;:&quot;entityRelationEdgeStyle&quot;,&quot;startArrow&quot;:&quot;none&quot;,&quot;endArrow&quot;:&quot;none&quot;,&quot;segment&quot;:10,&quot;curved&quot;:1,&quot;sourcePerimeterSpacing&quot;:0,&quot;targetPerimeterSpacing&quot;:0};" parent="uf4mvmNSqiAmKSMoRBAt-13" vertex="1">
          <mxGeometry x="665" y="180" width="80" height="30" as="geometry" />
        </mxCell>
        <mxCell id="yM6-UxT9ezw3NtagHcxI-6" value="" style="edgeStyle=entityRelationEdgeStyle;startArrow=none;endArrow=none;segment=10;curved=1;sourcePerimeterSpacing=0;targetPerimeterSpacing=0;rounded=0;exitX=1;exitY=0.5;exitDx=0;exitDy=0;" parent="uf4mvmNSqiAmKSMoRBAt-13" source="yM6-UxT9ezw3NtagHcxI-3" target="yM6-UxT9ezw3NtagHcxI-5" edge="1">
          <mxGeometry relative="1" as="geometry">
            <mxPoint x="630" y="260" as="sourcePoint" />
          </mxGeometry>
        </mxCell>
        <mxCell id="yM6-UxT9ezw3NtagHcxI-7" value="&lt;font color=&quot;#ff0303&quot;&gt;login&lt;/font&gt;" style="whiteSpace=wrap;html=1;shape=partialRectangle;top=0;left=0;bottom=1;right=0;points=[[0,1],[1,1]];fillColor=none;align=center;verticalAlign=bottom;routingCenterY=0.5;snapToPoint=1;recursiveResize=0;autosize=1;treeFolding=1;treeMoving=1;newEdgeStyle={&quot;edgeStyle&quot;:&quot;entityRelationEdgeStyle&quot;,&quot;startArrow&quot;:&quot;none&quot;,&quot;endArrow&quot;:&quot;none&quot;,&quot;segment&quot;:10,&quot;curved&quot;:1,&quot;sourcePerimeterSpacing&quot;:0,&quot;targetPerimeterSpacing&quot;:0};" parent="uf4mvmNSqiAmKSMoRBAt-13" vertex="1">
          <mxGeometry x="670" y="210" width="70" height="30" as="geometry" />
        </mxCell>
        <mxCell id="yM6-UxT9ezw3NtagHcxI-8" value="" style="edgeStyle=entityRelationEdgeStyle;startArrow=none;endArrow=none;segment=10;curved=1;sourcePerimeterSpacing=0;targetPerimeterSpacing=0;rounded=0;exitX=1;exitY=0.5;exitDx=0;exitDy=0;" parent="uf4mvmNSqiAmKSMoRBAt-13" source="yM6-UxT9ezw3NtagHcxI-3" target="yM6-UxT9ezw3NtagHcxI-7" edge="1">
          <mxGeometry relative="1" as="geometry">
            <mxPoint x="635" y="310" as="sourcePoint" />
          </mxGeometry>
        </mxCell>
        <mxCell id="yM6-UxT9ezw3NtagHcxI-10" style="edgeStyle=entityRelationEdgeStyle;rounded=0;orthogonalLoop=1;jettySize=auto;html=1;startArrow=none;endArrow=none;segment=10;curved=1;sourcePerimeterSpacing=0;targetPerimeterSpacing=0;exitX=0;exitY=1;exitDx=0;exitDy=0;entryX=1;entryY=0.5;entryDx=0;entryDy=0;" parent="uf4mvmNSqiAmKSMoRBAt-13" source="yM6-UxT9ezw3NtagHcxI-9" target="yM6-UxT9ezw3NtagHcxI-3" edge="1">
          <mxGeometry relative="1" as="geometry" />
        </mxCell>
        <mxCell id="yM6-UxT9ezw3NtagHcxI-9" value="&lt;font color=&quot;#ff0303&quot;&gt;profile&lt;/font&gt;" style="whiteSpace=wrap;html=1;shape=partialRectangle;top=0;left=0;bottom=1;right=0;points=[[0,1],[1,1]];fillColor=none;align=center;verticalAlign=bottom;routingCenterY=0.5;snapToPoint=1;recursiveResize=0;autosize=1;treeFolding=1;treeMoving=1;newEdgeStyle={&quot;edgeStyle&quot;:&quot;entityRelationEdgeStyle&quot;,&quot;startArrow&quot;:&quot;none&quot;,&quot;endArrow&quot;:&quot;none&quot;,&quot;segment&quot;:10,&quot;curved&quot;:1,&quot;sourcePerimeterSpacing&quot;:0,&quot;targetPerimeterSpacing&quot;:0};" parent="uf4mvmNSqiAmKSMoRBAt-13" vertex="1">
          <mxGeometry x="665" y="260" width="70" height="30" as="geometry" />
        </mxCell>
        <mxCell id="yM6-UxT9ezw3NtagHcxI-12" style="edgeStyle=entityRelationEdgeStyle;rounded=0;orthogonalLoop=1;jettySize=auto;html=1;startArrow=none;endArrow=none;segment=10;curved=1;sourcePerimeterSpacing=0;targetPerimeterSpacing=0;exitX=0;exitY=1;exitDx=0;exitDy=0;entryX=1;entryY=0.5;entryDx=0;entryDy=0;" parent="uf4mvmNSqiAmKSMoRBAt-13" source="yM6-UxT9ezw3NtagHcxI-11" target="yM6-UxT9ezw3NtagHcxI-3" edge="1">
          <mxGeometry relative="1" as="geometry" />
        </mxCell>
        <mxCell id="yM6-UxT9ezw3NtagHcxI-11" value="find password" style="whiteSpace=wrap;html=1;shape=partialRectangle;top=0;left=0;bottom=1;right=0;points=[[0,1],[1,1]];fillColor=none;align=center;verticalAlign=bottom;routingCenterY=0.5;snapToPoint=1;recursiveResize=0;autosize=1;treeFolding=1;treeMoving=1;newEdgeStyle={&quot;edgeStyle&quot;:&quot;entityRelationEdgeStyle&quot;,&quot;startArrow&quot;:&quot;none&quot;,&quot;endArrow&quot;:&quot;none&quot;,&quot;segment&quot;:10,&quot;curved&quot;:1,&quot;sourcePerimeterSpacing&quot;:0,&quot;targetPerimeterSpacing&quot;:0};" parent="uf4mvmNSqiAmKSMoRBAt-13" vertex="1">
          <mxGeometry x="665" y="300" width="110" height="30" as="geometry" />
        </mxCell>
        <mxCell id="upWMVvbWpLrKonzm-6r4-1" value="&lt;font color=&quot;#ff0303&quot;&gt;objects&lt;/font&gt;" style="whiteSpace=wrap;html=1;rounded=1;arcSize=50;align=center;verticalAlign=middle;strokeWidth=1;autosize=1;spacing=4;treeFolding=1;treeMoving=1;newEdgeStyle={&quot;edgeStyle&quot;:&quot;entityRelationEdgeStyle&quot;,&quot;startArrow&quot;:&quot;none&quot;,&quot;endArrow&quot;:&quot;none&quot;,&quot;segment&quot;:10,&quot;curved&quot;:1,&quot;sourcePerimeterSpacing&quot;:0,&quot;targetPerimeterSpacing&quot;:0};" vertex="1" parent="uf4mvmNSqiAmKSMoRBAt-13">
          <mxGeometry x="965" y="588" width="80" height="30" as="geometry" />
        </mxCell>
        <mxCell id="upWMVvbWpLrKonzm-6r4-2" value="" style="edgeStyle=entityRelationEdgeStyle;startArrow=none;endArrow=none;segment=10;curved=1;sourcePerimeterSpacing=0;targetPerimeterSpacing=0;rounded=0;" edge="1" target="upWMVvbWpLrKonzm-6r4-1" parent="uf4mvmNSqiAmKSMoRBAt-13" source="uf4mvmNSqiAmKSMoRBAt-34">
          <mxGeometry relative="1" as="geometry">
            <mxPoint x="915" y="650" as="sourcePoint" />
            <Array as="points">
              <mxPoint x="900" y="720" />
            </Array>
          </mxGeometry>
        </mxCell>
        <mxCell id="upWMVvbWpLrKonzm-6r4-3" value="数据对象" style="whiteSpace=wrap;html=1;shape=partialRectangle;top=0;left=0;bottom=1;right=0;points=[[0,1],[1,1]];fillColor=none;align=center;verticalAlign=bottom;routingCenterY=0.5;snapToPoint=1;recursiveResize=0;autosize=1;treeFolding=1;treeMoving=1;newEdgeStyle={&quot;edgeStyle&quot;:&quot;entityRelationEdgeStyle&quot;,&quot;startArrow&quot;:&quot;none&quot;,&quot;endArrow&quot;:&quot;none&quot;,&quot;segment&quot;:10,&quot;curved&quot;:1,&quot;sourcePerimeterSpacing&quot;:0,&quot;targetPerimeterSpacing&quot;:0};" vertex="1" parent="uf4mvmNSqiAmKSMoRBAt-13">
          <mxGeometry x="1089" y="510" width="90" height="30" as="geometry" />
        </mxCell>
        <mxCell id="upWMVvbWpLrKonzm-6r4-4" value="" style="edgeStyle=entityRelationEdgeStyle;startArrow=none;endArrow=none;segment=10;curved=1;sourcePerimeterSpacing=0;targetPerimeterSpacing=0;rounded=0;exitX=1;exitY=0.5;exitDx=0;exitDy=0;" edge="1" target="upWMVvbWpLrKonzm-6r4-3" parent="uf4mvmNSqiAmKSMoRBAt-13" source="upWMVvbWpLrKonzm-6r4-1">
          <mxGeometry relative="1" as="geometry">
            <mxPoint x="1054" y="520" as="sourcePoint" />
          </mxGeometry>
        </mxCell>
        <mxCell id="upWMVvbWpLrKonzm-6r4-5" value="tree对象" style="whiteSpace=wrap;html=1;shape=partialRectangle;top=0;left=0;bottom=1;right=0;points=[[0,1],[1,1]];fillColor=none;align=center;verticalAlign=bottom;routingCenterY=0.5;snapToPoint=1;recursiveResize=0;autosize=1;treeFolding=1;treeMoving=1;newEdgeStyle={&quot;edgeStyle&quot;:&quot;entityRelationEdgeStyle&quot;,&quot;startArrow&quot;:&quot;none&quot;,&quot;endArrow&quot;:&quot;none&quot;,&quot;segment&quot;:10,&quot;curved&quot;:1,&quot;sourcePerimeterSpacing&quot;:0,&quot;targetPerimeterSpacing&quot;:0};" vertex="1" parent="uf4mvmNSqiAmKSMoRBAt-13">
          <mxGeometry x="1089" y="540" width="90" height="30" as="geometry" />
        </mxCell>
        <mxCell id="upWMVvbWpLrKonzm-6r4-6" value="" style="edgeStyle=entityRelationEdgeStyle;startArrow=none;endArrow=none;segment=10;curved=1;sourcePerimeterSpacing=0;targetPerimeterSpacing=0;rounded=0;exitX=1;exitY=0.5;exitDx=0;exitDy=0;" edge="1" target="upWMVvbWpLrKonzm-6r4-5" parent="uf4mvmNSqiAmKSMoRBAt-13" source="upWMVvbWpLrKonzm-6r4-1">
          <mxGeometry relative="1" as="geometry">
            <mxPoint x="1049" y="603" as="sourcePoint" />
          </mxGeometry>
        </mxCell>
        <mxCell id="upWMVvbWpLrKonzm-6r4-7" value="提交对象" style="whiteSpace=wrap;html=1;shape=partialRectangle;top=0;left=0;bottom=1;right=0;points=[[0,1],[1,1]];fillColor=none;align=center;verticalAlign=bottom;routingCenterY=0.5;snapToPoint=1;recursiveResize=0;autosize=1;treeFolding=1;treeMoving=1;newEdgeStyle={&quot;edgeStyle&quot;:&quot;entityRelationEdgeStyle&quot;,&quot;startArrow&quot;:&quot;none&quot;,&quot;endArrow&quot;:&quot;none&quot;,&quot;segment&quot;:10,&quot;curved&quot;:1,&quot;sourcePerimeterSpacing&quot;:0,&quot;targetPerimeterSpacing&quot;:0};" vertex="1" parent="uf4mvmNSqiAmKSMoRBAt-13">
          <mxGeometry x="1089" y="600" width="90" height="30" as="geometry" />
        </mxCell>
        <mxCell id="upWMVvbWpLrKonzm-6r4-8" value="" style="edgeStyle=entityRelationEdgeStyle;startArrow=none;endArrow=none;segment=10;curved=1;sourcePerimeterSpacing=0;targetPerimeterSpacing=0;rounded=0;exitX=1;exitY=0.5;exitDx=0;exitDy=0;" edge="1" target="upWMVvbWpLrKonzm-6r4-7" parent="uf4mvmNSqiAmKSMoRBAt-13" source="upWMVvbWpLrKonzm-6r4-1">
          <mxGeometry relative="1" as="geometry">
            <mxPoint x="1050" y="600" as="sourcePoint" />
          </mxGeometry>
        </mxCell>
        <mxCell id="upWMVvbWpLrKonzm-6r4-9" value="标签对象" style="whiteSpace=wrap;html=1;shape=partialRectangle;top=0;left=0;bottom=1;right=0;points=[[0,1],[1,1]];fillColor=none;align=center;verticalAlign=bottom;routingCenterY=0.5;snapToPoint=1;recursiveResize=0;autosize=1;treeFolding=1;treeMoving=1;newEdgeStyle={&quot;edgeStyle&quot;:&quot;entityRelationEdgeStyle&quot;,&quot;startArrow&quot;:&quot;none&quot;,&quot;endArrow&quot;:&quot;none&quot;,&quot;segment&quot;:10,&quot;curved&quot;:1,&quot;sourcePerimeterSpacing&quot;:0,&quot;targetPerimeterSpacing&quot;:0};" vertex="1" parent="uf4mvmNSqiAmKSMoRBAt-13">
          <mxGeometry x="1089" y="630" width="90" height="30" as="geometry" />
        </mxCell>
        <mxCell id="upWMVvbWpLrKonzm-6r4-10" value="" style="edgeStyle=entityRelationEdgeStyle;startArrow=none;endArrow=none;segment=10;curved=1;sourcePerimeterSpacing=0;targetPerimeterSpacing=0;rounded=0;exitX=1;exitY=0.5;exitDx=0;exitDy=0;" edge="1" target="upWMVvbWpLrKonzm-6r4-9" parent="uf4mvmNSqiAmKSMoRBAt-13" source="upWMVvbWpLrKonzm-6r4-1">
          <mxGeometry relative="1" as="geometry">
            <mxPoint x="1054" y="700" as="sourcePoint" />
          </mxGeometry>
        </mxCell>
        <mxCell id="upWMVvbWpLrKonzm-6r4-11" value="HEAD" style="whiteSpace=wrap;html=1;rounded=1;arcSize=50;align=center;verticalAlign=middle;strokeWidth=1;autosize=1;spacing=4;treeFolding=1;treeMoving=1;newEdgeStyle={&quot;edgeStyle&quot;:&quot;entityRelationEdgeStyle&quot;,&quot;startArrow&quot;:&quot;none&quot;,&quot;endArrow&quot;:&quot;none&quot;,&quot;segment&quot;:10,&quot;curved&quot;:1,&quot;sourcePerimeterSpacing&quot;:0,&quot;targetPerimeterSpacing&quot;:0};" vertex="1" parent="uf4mvmNSqiAmKSMoRBAt-13">
          <mxGeometry x="1089" y="698" width="80" height="30" as="geometry" />
        </mxCell>
        <mxCell id="upWMVvbWpLrKonzm-6r4-12" value="" style="edgeStyle=entityRelationEdgeStyle;startArrow=none;endArrow=none;segment=10;curved=1;sourcePerimeterSpacing=0;targetPerimeterSpacing=0;rounded=0;exitX=1;exitY=0.5;exitDx=0;exitDy=0;" edge="1" target="upWMVvbWpLrKonzm-6r4-11" parent="uf4mvmNSqiAmKSMoRBAt-13" source="uf4mvmNSqiAmKSMoRBAt-102">
          <mxGeometry relative="1" as="geometry">
            <mxPoint x="1049" y="740" as="sourcePoint" />
          </mxGeometry>
        </mxCell>
        <mxCell id="upWMVvbWpLrKonzm-6r4-13" value="传输协议" style="whiteSpace=wrap;html=1;rounded=1;arcSize=50;align=center;verticalAlign=middle;strokeWidth=1;autosize=1;spacing=4;treeFolding=1;treeMoving=1;newEdgeStyle={&quot;edgeStyle&quot;:&quot;entityRelationEdgeStyle&quot;,&quot;startArrow&quot;:&quot;none&quot;,&quot;endArrow&quot;:&quot;none&quot;,&quot;segment&quot;:10,&quot;curved&quot;:1,&quot;sourcePerimeterSpacing&quot;:0,&quot;targetPerimeterSpacing&quot;:0};" vertex="1" parent="uf4mvmNSqiAmKSMoRBAt-13">
          <mxGeometry x="960.5" y="1060" width="90" height="30" as="geometry" />
        </mxCell>
        <mxCell id="upWMVvbWpLrKonzm-6r4-14" value="" style="edgeStyle=entityRelationEdgeStyle;startArrow=none;endArrow=none;segment=10;curved=1;sourcePerimeterSpacing=0;targetPerimeterSpacing=0;rounded=0;exitX=1;exitY=0.5;exitDx=0;exitDy=0;" edge="1" target="upWMVvbWpLrKonzm-6r4-13" parent="uf4mvmNSqiAmKSMoRBAt-13" source="uf4mvmNSqiAmKSMoRBAt-34">
          <mxGeometry relative="1" as="geometry">
            <mxPoint x="930.5" y="1022" as="sourcePoint" />
          </mxGeometry>
        </mxCell>
        <mxCell id="upWMVvbWpLrKonzm-6r4-16" value="http" style="whiteSpace=wrap;html=1;shape=partialRectangle;top=0;left=0;bottom=1;right=0;points=[[0,1],[1,1]];fillColor=none;align=center;verticalAlign=bottom;routingCenterY=0.5;snapToPoint=1;recursiveResize=0;autosize=1;treeFolding=1;treeMoving=1;newEdgeStyle={&quot;edgeStyle&quot;:&quot;entityRelationEdgeStyle&quot;,&quot;startArrow&quot;:&quot;none&quot;,&quot;endArrow&quot;:&quot;none&quot;,&quot;segment&quot;:10,&quot;curved&quot;:1,&quot;sourcePerimeterSpacing&quot;:0,&quot;targetPerimeterSpacing&quot;:0};" vertex="1" parent="uf4mvmNSqiAmKSMoRBAt-13">
          <mxGeometry x="1100" y="1010" width="60" height="30" as="geometry" />
        </mxCell>
        <mxCell id="upWMVvbWpLrKonzm-6r4-17" value="" style="edgeStyle=entityRelationEdgeStyle;startArrow=none;endArrow=none;segment=10;curved=1;sourcePerimeterSpacing=0;targetPerimeterSpacing=0;rounded=0;exitX=1;exitY=0.5;exitDx=0;exitDy=0;" edge="1" target="upWMVvbWpLrKonzm-6r4-16" parent="uf4mvmNSqiAmKSMoRBAt-13" source="upWMVvbWpLrKonzm-6r4-13">
          <mxGeometry relative="1" as="geometry">
            <mxPoint x="1075" y="1080" as="sourcePoint" />
            <Array as="points">
              <mxPoint x="1065" y="1110" />
            </Array>
          </mxGeometry>
        </mxCell>
        <mxCell id="upWMVvbWpLrKonzm-6r4-18" value="ssh" style="whiteSpace=wrap;html=1;shape=partialRectangle;top=0;left=0;bottom=1;right=0;points=[[0,1],[1,1]];fillColor=none;align=center;verticalAlign=bottom;routingCenterY=0.5;snapToPoint=1;recursiveResize=0;autosize=1;treeFolding=1;treeMoving=1;newEdgeStyle={&quot;edgeStyle&quot;:&quot;entityRelationEdgeStyle&quot;,&quot;startArrow&quot;:&quot;none&quot;,&quot;endArrow&quot;:&quot;none&quot;,&quot;segment&quot;:10,&quot;curved&quot;:1,&quot;sourcePerimeterSpacing&quot;:0,&quot;targetPerimeterSpacing&quot;:0};" vertex="1" parent="uf4mvmNSqiAmKSMoRBAt-13">
          <mxGeometry x="1098" y="1100" width="60" height="30" as="geometry" />
        </mxCell>
        <mxCell id="upWMVvbWpLrKonzm-6r4-19" value="" style="edgeStyle=entityRelationEdgeStyle;startArrow=none;endArrow=none;segment=10;curved=1;sourcePerimeterSpacing=0;targetPerimeterSpacing=0;rounded=0;exitX=1;exitY=0.5;exitDx=0;exitDy=0;" edge="1" target="upWMVvbWpLrKonzm-6r4-18" parent="uf4mvmNSqiAmKSMoRBAt-13" source="upWMVvbWpLrKonzm-6r4-13">
          <mxGeometry relative="1" as="geometry">
            <mxPoint x="1044" y="1150" as="sourcePoint" />
          </mxGeometry>
        </mxCell>
      </root>
    </mxGraphModel>
  </diagram>
</mxfile>
